<?xml version="1.0" encoding="UTF-8"?>
<svg xmlns="http://www.w3.org/2000/svg" version="1.1" viewBox="0 0 595.28 595.28">
  <!-- Generator: Adobe Illustrator 29.3.1, SVG Export Plug-In . SVG Version: 2.1.0 Build 151)  -->
  <defs>
    <style>
      .st0 {
        fill: #ffedc0;
        stroke: #1b1c39;
        stroke-miterlimit: 10;
        stroke-width: 6px;
      }

      .st1 {
        fill: #1b1b39;
      }

      .st2 {
        fill: #3b53a1;
      }

      .st3 {
        fill: #1b1c39;
      }
    </style>
  </defs>
  <g id="Calque_1">
    <g>
      <path class="st2" d="M-29.59,746.68c5.6,2.04,11.66,2.39,17.41,4.07,36.08,10.53,65.7,39.41,76.69,75.43,1.93,6.34,2.88,12.84,4.6,19.2v358.8c-7.81,53.14-50.92,95.32-105.03,98.75l-356.53-.07c-54.11-4.77-96.75-47.88-102.76-101.61v-352.96c3.82-49.97,48.6-96.55,98.68-101.62H-29.59ZM-193.33,765.26c-2.44-2.52-28.33,13.4-31.9,16.28s-14.51,13.4-16.87,16.8-2.45,7.45-4.1,9.84c-2.71,3.93-11.32,3.07-15.63,4.68l8.11-46.44c-49.16,14.92-75.65,64.96-90.88,110.58-23.77,71.19-26.74,160.45,25.83,219.8,16.03,18.1,35.97,32.68,57.52,43.48,4.45-10.58,5.34-22.58,9.31-33.62,17.2-47.89,62.93-83.62,113.79-88.25,8.32-.76,28.9,3.8,15.67-8.74-22.04-20.89-59.37-15.11-78.77-40.83-3.84-5.09-13.22-23.06-7.75-28.26,1.38-1.31,15.56-5.05,19.54-7.16,2.39-1.26,6.17-3.9,8.3-5.63,5.83-4.73,19.71-24.65,22.88-31.7,1.24-2.77,3.14-7.77,3.32-10.7.46-7.49-3.3-7.53-6.09-12.51-6.37-11.37-9.86-25.77-17.39-36.03-5.96-8.13-14.91-13.42-23.04-19.02-.3-17.93,4.74-35.21,8.14-52.59ZM-50.91,1193.31c84.58-82.18,92.08-212.18,24.09-307.17-11.49-16.05-42.85-51.01-62.71-53.41-26.47-3.2-36.06,17.23-27.22,39.99,5.71,14.7,22.65,20.64,34.29,29.58,13.94,10.71,23.78,25.37,32.42,38.41,8.27,12.48,18.07,44.68,19.26,59.7,10.51,132.96-125.7,213.51-241.13,152.88-101.29-53.2-127.59-149.3-101.08-257.07l14.8-37.47c.73-4.95-8.79,3.09-9.92,4.03-45.16,37.55-71.43,122.18-67.89,179.41,12,194.19,244.23,288.01,385.1,151.13ZM-132.04,1033.81c-52.77,5.55-99.17,45.88-106.38,99.15-.53,3.9-2.58,12.16-.3,15.02,2.38,3,34.53,7.2,40.13,7.48,48.99,2.4,99.31-18.97,126.51-60.53,4.69-7.16,15.86-27.64,12.58-35.6-2.03-4.93-20.02-16.17-25.39-18.73-14.7-7.01-30.99-8.49-47.15-6.79Z"/>
      <g>
        <path class="st1" d="M-50.81,1193.02c-140.87,136.88-373.1,43.06-385.1-151.13-3.54-57.23,32.6-138.31,48.26-156.34s29.55-27.1,29.55-27.1c0,0-13.02,35.96-19.21,65-16.62,78.02,4.21,176.34,105.5,229.54,115.44,60.63,251.64-19.91,241.13-152.88-1.19-15.02-10.99-47.22-19.26-59.7-8.64-13.04-18.48-27.71-32.42-38.41-11.64-8.94-28.58-14.88-34.29-29.58-8.84-22.76.74-43.19,27.22-39.99,19.85,2.4,51.22,37.37,62.71,53.41,67.99,94.99,60.49,224.99-24.09,307.17Z"/>
        <g>
          <path class="st1" d="M-193.24,764.97c-3.4,17.38-8.45,34.66-8.14,52.59,8.14,5.59,17.08,10.89,23.04,19.02,7.52,10.25,11.01,24.66,17.39,36.03,2.79,4.98,6.55,5.02,6.09,12.51-.18,2.92-2.08,7.93-3.32,10.7-3.16,7.05-17.05,26.96-22.88,31.7-2.13,1.73-5.91,4.37-8.3,5.63-3.99,2.11-18.17,5.85-19.54,7.16-5.47,5.2,3.91,23.17,7.75,28.26,19.4,25.72,56.73,19.94,78.77,40.83,13.23,12.54-7.34,7.98-15.67,8.74-50.87,4.63-96.59,40.36-113.79,88.25-3.97,11.05-4.85,23.04-9.31,33.62-21.55-10.81-41.49-25.39-57.52-43.48-52.56-59.35-49.59-148.61-25.83-219.8,15.23-45.62,41.72-95.66,90.88-110.58l-8.11,46.44c4.31-1.61,12.92-.75,15.63-4.68,1.65-2.39,1.72-6.41,4.1-9.84,2.36-3.4,13.33-13.95,16.87-16.8,3.57-2.88,29.46-18.8,31.9-16.28ZM-193.27,876.4c-2.79-22.36-21.28-34.18-42.93-26.66,2.8,19.3,24.02,34.03,42.93,26.66Z"/>
          <path class="st1" d="M-131.95,1033.52c40.42-4.25,80.6,24.07,80.6,24.07,0,0-15.96,29.88-20.64,37.04-27.21,41.57-77.52,62.94-126.51,60.53-5.59-.27-40.13-7.48-40.13-7.48,0,0-.22-11.12.3-15.02,7.21-53.28,53.61-93.6,106.38-99.15Z"/>
          <path class="st2" d="M-193.27,876.4c-18.91,7.38-40.13-7.36-42.93-26.66,21.65-7.52,40.14,4.3,42.93,26.66Z"/>
        </g>
      </g>
    </g>
  </g>
  <g id="Calque_2">
    <path class="st1" d="M1543.31,304.39c0,2.68-.04,5.35-.12,8.01-1.16,38.39-10.59,74.7-26.6,107.19-5.62,11.4-12.03,22.34-19.19,32.72-37.08,53.86-93.85,93.11-159.91,107.37h-.01c-7.58,1.64-15.29,2.94-23.09,3.91h-.02c-9.8,1.21-19.77,1.88-29.87,1.97-144.6,1.29-262.13-113.91-263.57-258.51-.88-88.02,41.8-166.13,107.8-214.09-36.23,39.99-58.29,93.04-58.29,151.26s21.18,109.14,56.13,148.85c27.92,31.73,64.63,55.56,106.32,67.65,5.38,1.57,10.85,2.94,16.4,4.11,15.03,3.15,30.6,4.81,46.57,4.81,43.71,0,90.29-11.55,125.82-39.09h.01c10.51-8.15,20.06-17.7,28.28-28.78,11.06-14.89,19.72-32.54,25.08-53.22.12-.47.25-.94.36-1.43,1.84-7.32,3.27-15.03,4.23-23.12.01-.04.01-.09.02-.13,1-8.38,1.53-17.17,1.53-26.41,0-47.09-17.12-90.19-45.47-123.39-5.44-6.37-13.42-9.85-21.8-9.83h-.11c-21.12,0-38.34-16.7-39.16-37.61-.02-.52-.03-1.04-.03-1.57,0-6.69,1.67-13,4.64-18.5.07-.12.12-.24.19-.36.01-.01.01-.03.02-.04.1-.2.21-.4.34-.61,6.76-11.76,19.46-19.68,34-19.68,6.32,0,12.29,1.49,17.58,4.16,3.59,2.52,7.13,5.11,10.59,7.81,28.81,22.32,52.83,50.55,70.22,82.85,19.85,36.82,31.1,78.94,31.1,123.7Z"/>
    <path class="st1" d="M1361.33,429.99c-22,7.34-77.88,18.47-134.97-3.93.37-2.55,3.49-29.51,23.2-55.53,9.26-12.23,20.79-22.63,33.97-30.59,18.19-10.99,39.52-17.31,62.33-17.31,28.26,0,51.74,11.19,61.3,16.95,12.33,7.43,23.23,17.01,32.15,28.23-4.62,12.04-23.03,43.88-77.98,62.2Z"/>
    <path class="st1" d="M1287.49,277.82c-22.68-.91-37.9-13.39-40.75-28.38-1.09-5.76.81-19.35,14.06-21.76,20.95-3.81,37.35-28.42,41.81-48.67,1.56-1.37,2.55-3.38,2.55-5.63,0-2.46-1.2-4.62-2.98-6.01-5.35-4.15-9.39-9.72-11-16.3-1.59-6.5-4.51-14.19-9.84-21.62-6.66-9.28-15.8-16.66-26.45-21.17-.36-1.88-3.95-19.61,12.14-43.94-14.87,0-45.21,15.54-53.95,41.48-5.01,1.44-10.76,3.5-15.16,6.1-3.12-12.19,8.02-39.66,11.82-46.41-19.53,4.28-38,18.14-52.1,32.24-16.15,16.15-54.22,72.54-54.22,144.91,0,3.74.1,7.46.31,11.15.58,10.63,1.99,21.04,4.18,31.17.11.56.23,1.12.35,1.67,8.47,37.88,27.65,71.71,54.2,98.16.07.07.15.14.22.22,13.37,12.95,28.62,23.99,45.29,32.65.35-5.2,1.29-11.57,1.77-14.42,10.31-56.21,59.55-98.78,118.73-98.78,5.85,0,11.6.42,17.22,1.22-2.58-16.55-32.86-26.86-58.2-27.88ZM1238.74,162.81c-6.28-3.43-10.16-9.55-12.43-14.58-2.07-4.58-2.81-8.28-2.81-8.28,8.4-1.71,21.53-3.25,29.72,3.22,4.78,3.78,8.02,9.11,10.1,13.69,2.35,5.18,3.24,9.43,3.24,9.43,0,0-12.49,4.92-27.82-3.48Z"/>
    <circle class="st0" cx="297.64" cy="297.64" r="245.43"/>
    <g>
      <path class="st3" d="M481.52,197.35c-13.74-25.52-33.14-48.42-56.11-66.21-5.48-4.25-11.35-9.63-22.72-9.63-19.71,0-37.13,18.83-30.17,40.26,6.46,19.89,26.12,20.97,33.87,22.28,9.4,1.59,17.97,13.91,20.34,17.15,18.97,25.84,29.3,57.22,29.3,89.49,0,7.19-.41,14.26-1.21,20.96,0,.04-.02.07-.03.16-.75,6.31-1.89,12.5-3.37,18.4-.08.36-.17.71-.28,1.13-4.08,15.76-10.79,30-19.94,42.31-6.3,8.49-13.85,16.17-22.44,22.84-.02.01-.04.02-.06.04-25.87,20.05-61.42,31.1-100.11,31.1-12.46,0-24.93-1.29-37.07-3.83-4.41-.93-8.8-2.03-13.05-3.27-32.71-9.49-61.97-28.11-84.62-53.84-28.81-32.73-44.67-74.81-44.67-118.46s16.47-87.36,46.39-120.39c.14-.15.14-.38,0-.53-.14-.15-.37-.18-.53-.06-26.39,19.17-48.22,44.6-63.12,73.54-15.41,29.92-23.37,63.65-23.03,97.55.56,55.88,22.72,108.1,62.41,147.02,39.23,38.47,91.11,59.58,146.29,59.58.64,0,1.29,0,1.93,0,7.99-.07,16.03-.6,23.89-1.57,6.23-.77,12.44-1.82,18.38-3.12.03,0,.06,0,.08,0,52.05-11.24,97.44-41.72,127.8-85.81,5.7-8.27,10.86-17.06,15.33-26.15,13.2-26.8,20.35-55.62,21.26-85.67.07-2.24.1-4.34.1-6.4,0-34.5-8.6-68.69-24.86-98.85Z"/>
      <path class="st3" d="M298.56,324.21c-10.58,6.39-19.74,14.64-27.21,24.5-13.78,18.19-17.56,36.98-18.55,44.22l-.04.26c-.03.18.08.36.25.43,20.62,8.09,40.63,10.67,57.79,10.67,25.55,0,44.75-5.73,50.15-7.53,46.09-15.37,59.45-42.04,62.45-49.85.05-.13.03-.28-.06-.39-7.2-9.05-15.86-16.65-25.75-22.61-5.29-3.19-24.46-13.58-49.1-13.58-17.64,0-34.9,4.8-49.92,13.87Z"/>
      <path class="st3" d="M154.7,246.97c0,3.02.08,6.02.25,8.92.46,8.4,1.58,16.79,3.34,24.92.09.45.18.9.28,1.34,6.65,29.73,21.63,56.87,43.34,78.49,0,0,.06.06.06.06.03.03.07.06.12.12,10.78,10.44,22.96,19.22,36.22,26.11.06.03.12.05.18.05.07,0,.13-.02.2-.05.12-.07.19-.19.2-.32.27-4.08,1.01-9.13,1.41-11.46,8.34-45.47,48-78.46,94.31-78.46,4.56,0,9.16.33,13.68.97.12.02.25-.02.34-.11.09-.09.13-.22.11-.34-2.03-13.03-25.39-21.71-46.8-22.58-16.81-.67-29.72-9.64-32.13-22.31-.57-3.01-.03-7.93,2.51-11.63,1.95-2.84,4.77-4.61,8.38-5.26,16.29-2.96,29.88-22.13,33.64-39,1.32-1.21,2.07-2.91,2.07-4.7,0-1.99-.92-3.85-2.53-5.11-4.44-3.45-7.43-7.87-8.63-12.78-1.56-6.4-4.23-12.25-7.91-17.38-5.36-7.47-12.65-13.33-21.07-16.94-.71-3.88-1.88-17.09,9.66-34.55.08-.12.09-.28.02-.41-.07-.13-.2-.21-.35-.21-12.77,0-36.5,13.22-43.34,33.16-3.3.96-7.84,2.5-11.51,4.58-2-9.75,6.55-30.96,9.51-36.21.08-.14.07-.31-.03-.43-.09-.13-.25-.19-.41-.15-16.86,3.7-32.01,16.08-41.75,25.82-6.56,6.56-17.44,21.25-26.54,41.09-11.01,24.02-16.83,49.87-16.83,74.78ZM251.57,166.15c-.12-.43.17-.87.61-.95,10.05-1.87,17.51-.95,22.17,2.73,3.15,2.49,5.83,6.12,7.94,10.77,1.22,2.68,1.94,5.07,2.29,6.38.11.41-.13.82-.54.93-2.84.76-11.15,2.22-20.81-3.08h0c-5.03-2.75-8.08-7.74-9.74-11.45-.99-2.19-1.6-4.15-1.92-5.33Z"/>
    </g>
  </g>
</svg>